<svg xmlns="http://www.w3.org/2000/svg" xmlns:xlink="http://www.w3.org/1999/xlink"><symbol id="copyright" viewBox="0 0 60 60"><path fill="currentcolor" d="M30.2 5H30L10.3 7.1v36.2L30 55l19.7-11.7V7.1L30.2 5zm17 36.8L30 52 12.8 41.8V27l17.1 10.2V39l-11.7-7v1.8L30 40.9v1.9l-11.8-7v1.8l11.8 7 11.9-7.1v-7.6l5.3-3.2v15.1zm-.1-17-4.7 2.8-2.2 1.3-10.3-6.1v1.8l8.8 5.3h-.1l-.2.1-1.3.7-7.3-4.3v1.8l5.8 3.4-1.4.9-4.3-2.6v1.8l2.9 1.7-2.9 1.7-17-10.1 17-10.2 17.2 10zm.1-1.8L29.9 12.8 12.8 23V9.4L30 7.6l17.2 1.8V23z"/></symbol><symbol id="like-button"><path d="m12.964 3.78-.628 3.045-.627 2.625h9.096v2.205L17.773 18.9h-9.41V8.4l4.6-4.62ZM2.09 10.5v8.4-8.4ZM13.8 0 6.9 6.93c-.418.315-.627.84-.627 1.47v10.5c0 1.155.94 2.1 2.09 2.1h9.41c.836 0 1.568-.525 1.881-1.26l3.137-7.455c.104-.21.104-.525.104-.735v-2.1H23c0-1.155-.94-2.1-2.09-2.1h-6.587l1.045-4.83v-.315c0-.42-.209-.84-.418-1.155L13.8 0ZM4.182 8.4H0V21h4.182V8.4Z" fill="currentcolor"/></symbol><symbol id="social-telegram"><g fill="none"><path d="M16.785.956.84 7.104C-.248 7.541-.24 8.148.64 8.42l4.094 1.277 9.472-5.976c.448-.272.857-.126.52.173l-7.673 6.925H7.05l.002.001-.283 4.22c.414 0 .597-.19.829-.414l1.988-1.934 4.136 3.055c.762.42 1.31.205 1.5-.706l2.715-12.795c.278-1.114-.425-1.618-1.153-1.29Z" fill="currentcolor"/></g></symbol><symbol id="social-vk"><path fill-rule="evenodd" clip-rule="evenodd" d="M24.116 1.804c.166-.546 0-.948-.795-.948h-2.625c-.668 0-.976.347-1.143.73 0 0-1.335 3.196-3.226 5.272-.612.602-.89.793-1.224.793-.167 0-.418-.19-.418-.738V1.804c0-.656-.184-.948-.74-.948H9.817c-.417 0-.668.304-.668.593 0 .621.946.765 1.043 2.513V7.76c0 .833-.153.984-.487.984-.89 0-3.055-3.21-4.34-6.885-.249-.715-.5-1.003-1.172-1.003H1.566c-.75 0-.9.347-.9.73 0 .682.89 4.07 4.145 8.551 2.17 3.06 5.225 4.72 8.008 4.72 1.67 0 1.875-.369 1.875-1.004V11.54c0-.737.158-.884.687-.884.39 0 1.057.192 2.615 1.667 1.78 1.75 2.073 2.533 3.075 2.533h2.625c.75 0 1.126-.368.91-1.096-.238-.724-1.088-1.775-2.215-3.022-.612-.71-1.53-1.475-1.809-1.858-.389-.49-.278-.71 0-1.147 0 0 3.2-4.426 3.533-5.929h.001Z" fill="currentcolor"/></symbol><symbol id="social-youtube"><g fill="none"><path d="M18.94.356H3.507C1.647.356.333 1.95.333 3.756V13.85c0 1.913 1.314 3.506 3.174 3.506H19.16c1.642 0 3.174-1.593 3.174-3.4v-10.2c-.219-1.806-1.532-3.4-3.393-3.4ZM7.995 12.894V4.819l7.333 4.037-7.333 4.038Z" fill="currentcolor"/></g></symbol><symbol id="video-button"><g fill="none"><path d="m48 27.02-48 27v-54l48 27Z" fill="#fff" fill-opacity=".7"/></g></symbol></svg>